<svg xmlns="http://www.w3.org/2000/svg" version="1.1" xmlns:xlink="http://www.w3.org/1999/xlink" width="128" height="128" x="0" y="0" viewBox="0 0 64 64" style="enable-background:new 0 0 512 512" xml:space="preserve" class=""><g><circle cx="32" cy="32" r="32" fill="#007e85" opacity="1" data-original="#f16062" class=""></circle><path fill="#ffffff" d="M21.73 37.3v1.69c0 7.46 6.07 13.53 13.53 13.53s13.53-6.07 13.53-13.53V25.25a5.21 5.21 0 0 0 4.14-5.09c0-2.87-2.33-5.2-5.2-5.2s-5.2 2.33-5.2 5.2c0 2.54 1.83 4.65 4.24 5.11V39c0 6.35-5.16 11.51-11.51 11.51S23.75 45.35 23.75 39v-1.7c5.96-.51 10.66-5.53 10.66-11.62v-8.65a3.98 3.98 0 0 0-3-3.85c-.73-1.17-2.82-1.7-3.71-1.7a2.57 2.57 0 1 0 0 5.14c.82 0 2.62-.44 3.49-1.4.71.3 1.21 1 1.21 1.82v8.65c0 5.32-4.33 9.65-9.65 9.65s-9.65-4.33-9.65-9.65v-8.65c0-.85.54-1.56 1.29-1.84.86.98 2.69 1.43 3.51 1.43a2.57 2.57 0 1 0 0-5.14c-.89 0-2.94.52-3.69 1.66-1.79.4-3.13 1.99-3.13 3.89v8.65c-.01 6.09 4.69 11.1 10.65 11.61zm22.82-17.14c0-1.75 1.43-3.18 3.18-3.18s3.18 1.43 3.18 3.18-1.43 3.18-3.18 3.18-3.18-1.43-3.18-3.18zM27.7 14.6c-.3 0-.55-.25-.55-.55s.25-.55.55-.55c.45 0 1.31.28 1.75.55-.44.26-1.29.55-1.75.55zm-9.81-1.1c.3 0 .55.25.55.55s-.25.55-.55.55c-.45 0-1.31-.28-1.75-.55.44-.27 1.29-.55 1.75-.55z" opacity="1" data-original="#ffffff" class=""></path></g></svg>